<?xml version="1.0" encoding="UTF-8" standalone="no"?>
<!-- Created with Inkscape (http://www.inkscape.org/) -->

<svg
   xmlns:dc="http://purl.org/dc/elements/1.1/"
   xmlns:cc="http://creativecommons.org/ns#"
   xmlns:rdf="http://www.w3.org/1999/02/22-rdf-syntax-ns#"
   xmlns:svg="http://www.w3.org/2000/svg"
   xmlns="http://www.w3.org/2000/svg"
   xmlns:sodipodi="http://sodipodi.sourceforge.net/DTD/sodipodi-0.dtd"
   xmlns:inkscape="http://www.inkscape.org/namespaces/inkscape"
   width="200"
   height="200"
   viewBox="0 0 52.916665 52.916668"
   version="1.1"
   id="svg8"
   inkscape:export-filename="/home/koje/Projects/Android/com.koje.planets/app/src/main/res/drawable/mil.png"
   inkscape:export-xdpi="95"
   inkscape:export-ydpi="95"
   inkscape:version="0.92.5 (2060ec1f9f, 2020-04-08)"
   sodipodi:docname="mil.svg">
  <defs
     id="defs2" />
  <sodipodi:namedview
     id="base"
     pagecolor="#ffffff"
     bordercolor="#666666"
     borderopacity="1.0"
     inkscape:pageopacity="0.0"
     inkscape:pageshadow="2"
     inkscape:zoom="0.98994949"
     inkscape:cx="97.031966"
     inkscape:cy="108.69037"
     inkscape:document-units="mm"
     inkscape:current-layer="layer1"
     showgrid="false"
     units="px"
     inkscape:window-width="1848"
     inkscape:window-height="1016"
     inkscape:window-x="72"
     inkscape:window-y="27"
     inkscape:window-maximized="1" />
  <metadata
     id="metadata5">
    <rdf:RDF>
      <cc:Work
         rdf:about="">
        <dc:format>image/svg+xml</dc:format>
        <dc:type
           rdf:resource="http://purl.org/dc/dcmitype/StillImage" />
        <dc:title></dc:title>
      </cc:Work>
    </rdf:RDF>
  </metadata>
  <g
     inkscape:label="Ebene 1"
     inkscape:groupmode="layer"
     id="layer1"
     transform="translate(0,-244.08332)">
    <g
       style="fill:#ffffff;fill-opacity:1"
       id="g1037"
       transform="matrix(1.0985497,0,0,1.1894268,0.89629967,243.39077)">
      <path
         id="path1017"
         d="m 16.8786,29.0308 c 0.5028,-0.1235 1.2468,0.5971 1.2468,0.5971 0,0 5.4075,3.3717 5.422,3.3717 0.6797,10e-5 6.3272,-3.3717 6.3272,-3.3717 0,0 0.744,-0.7206 1.2468,-0.5971 C 36.5255,30.3589 42,33.0668 42,37.1404 v 6.8593 H 6 v -6.8593 c 0,-4.0736 5.4745,-6.7815 10.8786,-8.1096 z M 12,38 c 0,-0.5523 0.4477,-1 1,-1 h 5 c 0.5523,0 1,0.4477 1,1 0,0.5523 -0.4477,1 -1,1 h -5 c -0.5523,0 -1,-0.4477 -1,-1 z m 21.1975,-3.8497 c -0.0622,-0.2004 -0.3328,-0.2004 -0.3949,0 l -0.5659,1.8246 c -0.0278,0.0896 -0.1076,0.1503 -0.1975,0.1503 H 30.208 c -0.2011,0 -0.2848,0.2697 -0.122,0.3935 l 1.4815,1.1277 c 0.0728,0.0555 0.1032,0.1536 0.0754,0.2432 l -0.5659,1.8247 c -0.0622,0.2003 0.1568,0.367 0.3195,0.2432 l 1.4815,-1.1278 c 0.0728,-0.0553 0.1713,-0.0553 0.2441,0 l 1.4814,1.1278 c 0.1627,0.1238 0.3817,-0.0429 0.3195,-0.2432 L 34.3571,37.8896 C 34.3293,37.8 34.3598,37.7019 34.4326,37.6464 l 1.4814,-1.1277 c 0.1628,-0.1238 0.0791,-0.3935 -0.122,-0.3935 h -1.8312 c -0.0899,0 -0.1697,-0.0607 -0.1975,-0.1503 z"
         inkscape:connector-curvature="0"
         style="clip-rule:evenodd;fill:#ffffff;fill-rule:evenodd;fill-opacity:1" />
      <path
         id="path1019"
         d="m 15,18 v -3 h 2 v 3 c 0,3.866 3.134,7 7,7 3.866,0 7,-3.134 7,-7 v -3 h 2 v 3 c 0,4.9706 -4.0294,9 -9,9 -4.9706,0 -9,-4.0294 -9,-9 z"
         inkscape:connector-curvature="0"
         style="clip-rule:evenodd;fill:#ffffff;fill-rule:evenodd;fill-opacity:1" />
      <path
         id="path1021"
         d="M 14.0214,14.4106 C 14.0668,14.1728 14.2845,14 14.5386,14 h 18.9228 c 0.2541,0 0.4718,0.1728 0.5172,0.4106 l 2e-4,0.0012 3e-4,0.0012 5e-4,0.0029 0.0012,0.0068 0.0029,0.0182 c 0.0021,0.0141 0.0045,0.0322 0.0068,0.0539 0.0046,0.0435 0.0088,0.1019 0.0094,0.173 0.0012,0.1423 -0.0119,0.337 -0.0658,0.5663 -0.109,0.4635 -0.3808,1.0527 -1.0033,1.6253 C 31.6967,17.9946 29.1612,19 24,19 c -5.1612,0 -7.6967,-1.0054 -8.9308,-2.1406 -0.6225,-0.5726 -0.8943,-1.1618 -1.0033,-1.6253 -0.0539,-0.2293 -0.067,-0.424 -0.0658,-0.5663 6e-4,-0.0711 0.0048,-0.1295 0.0094,-0.173 0.0023,-0.0217 0.0047,-0.0398 0.0068,-0.0539 l 0.0029,-0.0182 0.0012,-0.0068 5e-4,-0.0029 3e-4,-0.0012 z"
         inkscape:connector-curvature="0"
         style="clip-rule:evenodd;fill:#ffffff;fill-rule:evenodd;fill-opacity:1" />
      <path
         id="path1023"
         d="m 13.6884,12 c -0.076,-0.1197 -0.1535,-0.24 -0.2314,-0.3612 h -1e-4 C 12.7488,10.5389 12,9.37587 12,8.09677 12,7.29597 12.5203,6.62166 13.209,6.08848 15.769,4.10661 24,3 24,3 24,3 32.231,4.10662 34.791,6.08848 35.4797,6.62166 36,7.29597 36,8.09677 36,9.55508 35.1742,10.8143 34.3907,12 Z M 26.5,7.33333 C 26.5,7.33333 24.6667,6.66667 24,6 23.3333,6.66667 21.5,7.33333 21.5,7.33333 21.5,7.33333 22,11 24,11 c 2,0 2.5,-3.66667 2.5,-3.66667 z"
         inkscape:connector-curvature="0"
         style="clip-rule:evenodd;fill:#ffffff;fill-rule:evenodd;fill-opacity:1" />
    </g>
    <path
       style="fill:none;stroke:#ffffff;stroke-width:3.065;stroke-linecap:butt;stroke-linejoin:miter;stroke-opacity:1;stroke-miterlimit:4;stroke-dasharray:none"
       d="m 42.763125,283.90378 5.612659,-24.85607"
       id="path1041"
       inkscape:connector-curvature="0" />
  </g>
  <style
     id="style1001"
     type="text/css">
<![CDATA[
	.st0{fill:#000000;}
]]>
</style>
</svg>
